# xmcd CD database file
#
# Track frame offsets:
#	150
#	15487
#	37870
#	51532
#	66662
#	85960
#	99947
#	118055
#	139905
#	152060
#	173107
#	190682
#
# Disc length: 2697 seconds
#
# Revision: 0
# Processed by: cddbd v1.4PL0 Copyright (c) Steve Scherf et al.
# Submitted via: CDex 1.50beta10
#
DISCID=9f0a870c
DTITLE=Eddie C. Campbell - King Of The Jungle
DYEAR=1996
DGENRE=Blues
TTITLE0=Santa's Messin' With The Kid
TTITLE1=Still A Fool
TTITLE2=Cheaper To Keep Her
TTITLE3=Poison Ivy
TTITLE4=The Red Rooster
TTITLE5=Smokin' Potatoes
TTITLE6=King Of The Jungle
TTITLE7=She's Nineteen Years Old
TTITLE8=Look Whatcha Done
TTITLE9=We Both Must Cry
TTITLE10=Weary Blues
TTITLE11=Blues On The Highway
EXTD=YEAR: 1996
EXTT0=
EXTT1=
EXTT2=
EXTT3=
EXTT4=
EXTT5=
EXTT6=
EXTT7=
EXTT8=
EXTT9=
EXTT10=
EXTT11=
PLAYORDER=
